<?xml version="1.0" encoding="utf-8"?>
<!-- Generator: Adobe Illustrator 16.0.0, SVG Export Plug-In . SVG Version: 6.00 Build 0)  -->
<!DOCTYPE svg PUBLIC "-//W3C//DTD SVG 1.1//EN" "http://www.w3.org/Graphics/SVG/1.1/DTD/svg11.dtd">
<svg version="1.1" id="Layer_1" xmlns="http://www.w3.org/2000/svg" xmlns:xlink="http://www.w3.org/1999/xlink" x="0px" y="0px"
	 width="67.5px" height="52.111px" viewBox="0 0 67.5 52.111" enable-background="new 0 0 67.5 52.111" xml:space="preserve">
<path fill="#8D8D8D" stroke="#FFFFFF" stroke-width="2" stroke-miterlimit="10" d="M26.75,51.111H66.5
	c0-7.08-2.44-19.17-10.176-24.693c3.035-2.416,4.987-6.135,4.987-10.316c0-7.283-5.903-13.186-13.187-13.186
	S34.938,8.819,34.938,16.102c0,4.181,1.952,7.9,4.987,10.316C32.19,31.941,26.75,44.031,26.75,51.111z"/>
<path fill="#8C8C8C" stroke="#FFFFFF" stroke-width="2" stroke-miterlimit="10" d="M1,51.027h39.75c0-7.08-5.44-19.17-13.176-24.693
	c3.035-2.416,4.987-6.135,4.987-10.316c0-7.283-5.903-13.186-13.187-13.186S6.188,8.735,6.188,16.018
	c0,4.181,1.952,7.9,4.987,10.316C3.44,31.857,1,43.947,1,51.027z"/>
<path fill="#989898" stroke="#FFFFFF" stroke-width="2" stroke-miterlimit="10" d="M15.375,51.027H53.75
	c0-7.35-2.646-19.898-10.676-25.632c3.15-2.507,5.176-6.368,5.176-10.708C48.25,7.128,42.122,1,34.563,1S20.875,7.128,20.875,14.688
	c0,4.34,2.025,8.201,5.176,10.708C18.021,31.129,15.375,43.678,15.375,51.027z"/>
<g>
</g>
<g>
</g>
<g>
</g>
<g>
</g>
<g>
</g>
<g>
</g>
</svg>
