<?xml version="1.0" encoding="utf-8"?>
<!-- Generator: Adobe Illustrator 16.0.0, SVG Export Plug-In . SVG Version: 6.00 Build 0)  -->
<!DOCTYPE svg PUBLIC "-//W3C//DTD SVG 1.1//EN" "http://www.w3.org/Graphics/SVG/1.1/DTD/svg11.dtd">
<svg version="1.1" id="Layer_1" xmlns="http://www.w3.org/2000/svg" xmlns:xlink="http://www.w3.org/1999/xlink" x="0px" y="0px"
	 width="719.929px" height="288.612px" viewBox="0 0 719.929 288.612" enable-background="new 0 0 719.929 288.612"
	 xml:space="preserve">
<rect x="360.594" y="51.026" fill="#FFFFFF" width="359.333" height="191.13"/>
<path fill="#E49A54" stroke="#E39A55" stroke-miterlimit="10" d="M287.311,280.368c0,4.277-3.567,7.744-7.968,7.744H8.466
	c-4.4,0-7.966-3.467-7.966-7.744V17.021c0-4.278,3.565-7.746,7.966-7.746h270.877c4.4,0,7.968,3.467,7.968,7.746V280.368z"/>
<rect x="25.862" y="38.037" fill="#FFFFFF" stroke="#FFFFFF" stroke-miterlimit="10" width="236.451" height="220.063"/>
<path fill="#D3D2D2" d="M228.776,26.163v21.433c0,1.894-3.174,3.43-7.088,3.43H65.757c-3.915,0-7.088-1.536-7.088-3.43V26.163
	H228.776z"/>
<path fill="#708196" d="M228.776,0v38.079c0,3.365-3.174,6.093-7.088,6.093H65.757c-3.915,0-7.088-2.728-7.088-6.093V0H228.776z"/>
<line fill="#E1DFD0" stroke="#E1DFD0" stroke-width="10" stroke-miterlimit="10" x1="58.669" y1="120.716" x2="228.776" y2="120.716"/>
<line fill="#E1DFD0" stroke="#E1DFD0" stroke-width="10" stroke-miterlimit="10" x1="58.304" y1="145.406" x2="228.412" y2="145.406"/>
<line fill="#E1DFD0" stroke="#E1DFD0" stroke-width="10" stroke-miterlimit="10" x1="58.669" y1="169.643" x2="228.776" y2="169.643"/>
<line fill="#E1DFD0" stroke="#E1DFD0" stroke-width="10" stroke-miterlimit="10" x1="59.032" y1="194.333" x2="229.14" y2="194.333"/>
<line fill="#E1DFD0" stroke="#E1DFD0" stroke-width="10" stroke-miterlimit="10" x1="59.033" y1="218.117" x2="229.142" y2="218.117"/>
<ellipse fill="#989798" cx="78.03" cy="72.187" rx="8.935" ry="8.329"/>
<path fill="#989798" d="M65.534,96.26c0-9.263,5.597-16.773,12.495-16.773c6.899,0,12.497,7.51,12.497,16.773"/>
<line fill="#E1DFD0" stroke="#E1DFD0" stroke-width="20" stroke-miterlimit="10" x1="104.598" y1="80.516" x2="228.776" y2="80.516"/>
<rect x="25.862" y="258.326" fill="#B98051" stroke="#B98051" stroke-miterlimit="10" width="236.451" height="5.89"/>
<g>
	<path fill="#606161" d="M490.604,113.488h-5.371l8.703-24.41h5.882l8.601,24.41h-5.542l-1.563-5.031h-9.009L490.604,113.488z
		 M493.664,104.241h6.222l-3.026-9.655h-0.067L493.664,104.241z"/>
	<path fill="#606161" d="M511.685,89.079h10.776c8.228,0,9.928,7.003,9.928,11.627c0,5.235-2.074,12.783-10.131,12.783h-10.573
		V89.079z M516.682,109.272h4.964c4.147,0,5.541-4.181,5.541-8.193c0-7.208-3.434-7.785-5.609-7.785h-4.896V109.272z"/>
	<path fill="#606161" d="M559.655,113.488h-4.759V93.09h-0.068l-4.556,20.398h-4.997l-4.454-20.398h-0.067v20.398h-4.76v-24.41
		h7.445l4.419,19.242h0.068l4.352-19.242h7.377V113.488z"/>
	<path fill="#606161" d="M569.245,113.488h-5.1v-24.41h5.1V113.488z"/>
	<path fill="#606161" d="M588.896,89.079h4.76v24.41h-5.1l-9.961-17.406h-0.068v17.406h-4.76v-24.41h5.371l9.689,16.999h0.068
		V89.079z"/>
	<path fill="#989798" d="M426.31,145.755c0,6.425-3.875,9.179-10.029,9.179c-2.244,0-5.575-0.544-7.751-2.958
		c-1.326-1.496-1.836-3.468-1.904-5.916v-16.183h5.202v15.842c0,3.4,1.972,4.896,4.352,4.896c3.501,0,4.929-1.7,4.929-4.657v-16.081
		h5.202V145.755z"/>
	<path fill="#989798" d="M446.199,129.878h4.76v24.41h-5.1l-9.961-17.406h-0.068v17.406h-4.76v-24.41h5.372l9.689,16.999h0.068
		V129.878z"/>
	<path fill="#989798" d="M455.856,129.878h10.776c8.228,0,9.928,7.003,9.928,11.627c0,5.235-2.074,12.783-10.131,12.783h-10.573
		V129.878z M460.854,150.072h4.964c4.147,0,5.541-4.181,5.541-8.193c0-7.208-3.434-7.785-5.609-7.785h-4.896V150.072z"/>
	<path fill="#989798" d="M498.354,134.196H485.4v5.133H497.3v4.317H485.4v6.324h13.531v4.317h-18.528v-24.41h17.95V134.196z"/>
	<path fill="#989798" d="M503.081,129.878h12.341c6.494,0,7.684,4.793,7.684,6.901c0,2.686-1.359,4.998-3.773,5.813
		c2.006,0.884,3.094,1.632,3.094,6.188c0,3.569,0,4.454,1.088,4.861v0.646h-5.645c-0.34-1.156-0.543-2.414-0.543-4.93
		c0-3.332-0.204-4.624-3.979-4.624h-5.27v9.553h-4.997V129.878z M514.063,140.622c2.651,0,3.943-0.918,3.943-3.332
		c0-1.292-0.578-3.196-3.57-3.196h-6.357v6.527H514.063z"/>
	<path fill="#989798" d="M532.729,149.869h12.137v4.419h-17.236v-24.41h5.1V149.869z"/>
	<path fill="#989798" d="M551.87,154.288h-5.371l8.703-24.41h5.882l8.601,24.41h-5.542l-1.563-5.031h-9.009L551.87,154.288z
		 M554.93,145.041h6.222l-3.026-9.655h-0.067L554.93,145.041z"/>
	<path fill="#989798" d="M582.707,141.131h10.199v13.157h-3.4l-0.51-3.06c-1.291,1.496-3.161,3.706-7.615,3.706
		c-5.881,0-11.219-4.216-11.219-12.783c0-6.629,3.672-12.919,11.865-12.919h0.068c7.479,0,10.437,4.862,10.709,8.228h-5.1
		c0-0.952-1.734-4.012-5.338-4.012c-3.638,0-7.004,2.516-7.004,8.771c0,6.664,3.639,8.397,7.105,8.397
		c1.122,0,4.861-0.442,5.916-5.371h-5.678V141.131z"/>
	<path fill="#989798" d="M612.254,154.288h-5.1v-24.41h17.373v4.318h-12.273v5.507h10.743v4.317h-10.743V154.288z"/>
	<path fill="#989798" d="M638.569,129.232c3.229,0,11.729,1.394,11.729,12.851c0,11.457-8.499,12.851-11.729,12.851
		s-11.729-1.394-11.729-12.851C626.841,130.626,635.34,129.232,638.569,129.232z M638.569,150.616c2.754,0,6.629-1.7,6.629-8.533
		c0-6.833-3.875-8.533-6.629-8.533s-6.63,1.7-6.63,8.533C631.939,148.917,635.815,150.616,638.569,150.616z M637.414,127.091h-4.284
		v-3.91h4.284V127.091z M644.043,127.091h-4.283v-3.91h4.283V127.091z"/>
	<path fill="#989798" d="M654.381,129.878h12.341c6.493,0,7.683,4.793,7.683,6.901c0,2.686-1.359,4.998-3.773,5.813
		c2.006,0.884,3.094,1.632,3.094,6.188c0,3.569,0,4.454,1.088,4.861v0.646h-5.644c-0.34-1.156-0.544-2.414-0.544-4.93
		c0-3.332-0.204-4.624-3.978-4.624h-5.27v9.553h-4.997V129.878z M665.361,140.622c2.652,0,3.943-0.918,3.943-3.332
		c0-1.292-0.577-3.196-3.569-3.196h-6.357v6.527H665.361z"/>
	<path fill="#989798" d="M402.204,174.996h-12.953v5.133h11.899v4.318h-11.899v6.324h13.531v4.316h-18.528v-24.409h17.95V174.996z"
		/>
	<path fill="#989798" d="M412.031,190.667h12.137v4.42h-17.236v-24.409h5.099V190.667z"/>
	<path fill="#989798" d="M445.655,174.996h-12.953v5.133h11.899v4.318h-11.899v6.324h13.531v4.316h-18.528v-24.409h17.95V174.996z"
		/>
	<path fill="#989798" d="M464.525,170.678h5.304l-8.295,24.409h-4.862l-8.227-24.409h5.474l5.235,18.495h0.068L464.525,170.678z"/>
	<path fill="#989798" d="M477.99,184.14v10.947h-5.1v-24.409h5.1v9.248h9.52v-9.248h5.1v24.409h-5.1V184.14H477.99z"/>
	<path fill="#989798" d="M501.076,195.087h-5.372l8.703-24.409h5.882l8.602,24.409h-5.542l-1.563-5.031h-9.01L501.076,195.087z
		 M506.141,167.891h-4.283v-3.91h4.283V167.891z M504.136,185.841h6.222l-3.026-9.656h-0.067L504.136,185.841z M512.771,167.891
		h-4.283v-3.91h4.283V167.891z"/>
	<path fill="#989798" d="M527.255,190.667h12.137v4.42h-17.236v-24.409h5.1V190.667z"/>
	<path fill="#989798" d="M546.566,187.574c0.035,1.361,0.715,3.945,5.168,3.945c2.414,0,5.1-0.578,5.1-3.162
		c0-1.904-1.836-2.414-4.42-3.025l-2.617-0.613c-3.943-0.918-7.752-1.801-7.752-7.172c0-2.72,1.463-7.514,9.384-7.514
		c7.479,0,9.485,4.896,9.519,7.888h-4.895c-0.137-1.088-0.545-3.672-4.998-3.672c-1.938,0-4.25,0.714-4.25,2.924
		c0,1.903,1.564,2.312,2.584,2.55l5.949,1.461c3.332,0.816,6.392,2.176,6.392,6.561c0,7.344-7.479,7.99-9.621,7.99
		c-8.907,0-10.437-5.133-10.437-8.16H546.566z"/>
	<path fill="#989798" d="M576.248,170.032c3.229,0,11.729,1.394,11.729,12.85c0,11.457-8.499,12.852-11.729,12.852
		s-11.729-1.395-11.729-12.852C564.52,171.426,573.019,170.032,576.248,170.032z M576.248,191.416c2.754,0,6.629-1.699,6.629-8.533
		c0-6.833-3.875-8.532-6.629-8.532s-6.629,1.7-6.629,8.532C569.619,189.716,573.494,191.416,576.248,191.416z"/>
	<path fill="#989798" d="M601.068,195.087h-5.1v-20.091h-7.377v-4.318h19.854v4.318h-7.377V195.087z"/>
	<path fill="#989798" d="M611.474,170.678h12.341c6.493,0,7.684,4.793,7.684,6.902c0,2.686-1.36,4.998-3.774,5.812
		c2.006,0.885,3.094,1.633,3.094,6.188c0,3.57,0,4.455,1.088,4.863v0.645h-5.644c-0.34-1.156-0.544-2.414-0.544-4.93
		c0-3.33-0.204-4.623-3.978-4.623h-5.27v9.553h-4.997V170.678z M622.454,181.421c2.651,0,3.944-0.918,3.944-3.332
		c0-1.292-0.578-3.196-3.57-3.196h-6.357v6.527H622.454z"/>
	<path fill="#989798" d="M638.809,195.087h-5.371l8.703-24.409h5.881l8.602,24.409h-5.542l-1.563-5.031h-9.009L638.809,195.087z
		 M643.874,167.891h-4.283v-3.91h4.283V167.891z M641.868,185.841h6.222l-3.025-9.656h-0.068L641.868,185.841z M650.504,167.891
		h-4.284v-3.91h4.284V167.891z"/>
	<path fill="#989798" d="M664.989,195.087h-5.1v-24.409h17.372v4.318h-12.272v5.507h10.742v4.319h-10.742V195.087z"/>
	<path fill="#989798" d="M685.763,195.087h-5.1v-24.409h17.372v4.318h-12.272v5.507h10.742v4.319h-10.742V195.087z"/>
</g>
<line fill="#E0DFCF" stroke="#E0DFCF" stroke-width="16" stroke-miterlimit="10" x1="360.594" y1="45.085" x2="719.928" y2="45.085"/>
<line fill="#E0DFCF" stroke="#E0DFCF" stroke-width="16" stroke-miterlimit="10" x1="360.594" y1="238.215" x2="719.928" y2="238.215"/>
<path fill="#999999" stroke="#FFFFFF" stroke-width="2" stroke-miterlimit="10" d="M90.526,96.44c0-4.787-1.724-12.959-6.953-16.693
	c2.052-1.633,3.371-4.147,3.371-6.974c0-4.923-3.991-8.914-8.914-8.914s-8.914,3.991-8.914,8.914c0,2.827,1.319,5.341,3.371,6.974
	c-5.229,3.734-6.953,11.907-6.953,16.693H90.526"/>
<g>
</g>
<g>
</g>
<g>
</g>
<g>
</g>
<g>
</g>
<g>
</g>
</svg>
