<?xml version="1.0" encoding="utf-8"?>
<!-- Generator: Adobe Illustrator 16.0.0, SVG Export Plug-In . SVG Version: 6.00 Build 0)  -->
<!DOCTYPE svg PUBLIC "-//W3C//DTD SVG 1.1//EN" "http://www.w3.org/Graphics/SVG/1.1/DTD/svg11.dtd">
<svg version="1.1" id="Layer_1" xmlns="http://www.w3.org/2000/svg" xmlns:xlink="http://www.w3.org/1999/xlink" x="0px" y="0px"
	 width="719.929px" height="288.612px" viewBox="0 0 719.929 288.612" enable-background="new 0 0 719.929 288.612"
	 xml:space="preserve">
<rect x="360.594" y="51.026" fill="#FFFFFF" width="359.333" height="191.13"/>
<path fill="#E49A54" stroke="#E39A55" stroke-miterlimit="10" d="M287.311,280.368c0,4.277-3.567,7.744-7.968,7.744H8.466
	c-4.4,0-7.966-3.467-7.966-7.744V17.021c0-4.278,3.565-7.746,7.966-7.746h270.877c4.4,0,7.968,3.467,7.968,7.746V280.368z"/>
<rect x="25.862" y="38.037" fill="#FFFFFF" stroke="#FFFFFF" stroke-miterlimit="10" width="236.451" height="220.063"/>
<path fill="#D3D2D2" d="M228.776,26.163v21.433c0,1.894-3.174,3.43-7.088,3.43H65.757c-3.915,0-7.088-1.536-7.088-3.43V26.163
	H228.776z"/>
<path fill="#708196" d="M228.776,0v38.079c0,3.365-3.174,6.093-7.088,6.093H65.757c-3.915,0-7.088-2.728-7.088-6.093V0H228.776z"/>
<line fill="#E1DFD0" stroke="#E1DFD0" stroke-width="10" stroke-miterlimit="10" x1="58.669" y1="120.716" x2="228.776" y2="120.716"/>
<line fill="#E1DFD0" stroke="#E1DFD0" stroke-width="10" stroke-miterlimit="10" x1="58.304" y1="145.406" x2="228.412" y2="145.406"/>
<line fill="#E1DFD0" stroke="#E1DFD0" stroke-width="10" stroke-miterlimit="10" x1="58.669" y1="169.643" x2="228.776" y2="169.643"/>
<line fill="#E1DFD0" stroke="#E1DFD0" stroke-width="10" stroke-miterlimit="10" x1="59.032" y1="194.333" x2="229.14" y2="194.333"/>
<line fill="#E1DFD0" stroke="#E1DFD0" stroke-width="10" stroke-miterlimit="10" x1="59.033" y1="218.117" x2="229.142" y2="218.117"/>
<line fill="#E1DFD0" stroke="#E1DFD0" stroke-width="20" stroke-miterlimit="10" x1="104.598" y1="80.516" x2="228.776" y2="80.516"/>
<rect x="25.862" y="258.326" fill="#B98051" stroke="#B98051" stroke-miterlimit="10" width="236.451" height="5.89"/>
<g>
	<path fill="#989798" d="M448.758,145.396h-10.125v6.855h11.883v4.236H433.36v-25.594h17.121v4.271h-11.848v6.1h10.125V145.396z"/>
	<path fill="#989798" d="M474.439,156.488h-5.273V145.52h-10.283v10.969h-5.273v-25.594h5.273v10.371h10.283v-10.371h5.273V156.488z
		"/>
	<path fill="#989798" d="M497.801,135.166h-7.84v21.322h-5.273v-21.322h-7.734v-4.271h20.848V135.166z"/>
	<path fill="#989798" d="M523.166,151.215h-9.246l-1.758,5.273h-5.607l9.527-25.594h4.887l9.58,25.594h-5.607L523.166,151.215z
		 M515.344,146.943h6.398l-3.217-9.58L515.344,146.943z"/>
	<path fill="#989798" d="M536.438,137.469l0.158,2.197c1.359-1.699,3.182-2.549,5.467-2.549c2.016,0,3.516,0.592,4.5,1.775
		s1.488,2.953,1.512,5.309v12.287h-5.08v-12.164c0-1.078-0.234-1.86-0.703-2.347s-1.248-0.729-2.338-0.729
		c-1.43,0-2.502,0.609-3.217,1.828v13.412h-5.08v-19.02H536.438z"/>
	<path fill="#989798" d="M556.688,137.469l0.158,2.127c1.348-1.652,3.17-2.479,5.467-2.479c2.449,0,4.131,0.967,5.045,2.9
		c1.336-1.934,3.24-2.9,5.713-2.9c2.063,0,3.598,0.601,4.605,1.802s1.512,3.009,1.512,5.423v12.146h-5.098v-12.129
		c0-1.078-0.211-1.866-0.633-2.364s-1.166-0.747-2.232-0.747c-1.523,0-2.578,0.727-3.164,2.18l0.018,13.061h-5.08v-12.111
		c0-1.102-0.217-1.898-0.65-2.391s-1.172-0.738-2.215-0.738c-1.441,0-2.484,0.598-3.129,1.793v13.447h-5.08v-19.02H556.688z"/>
	<path fill="#989798" d="M594.111,156.488c-0.234-0.457-0.404-1.025-0.51-1.705c-1.23,1.371-2.83,2.057-4.799,2.057
		c-1.863,0-3.406-0.539-4.631-1.617s-1.838-2.438-1.838-4.078c0-2.016,0.748-3.563,2.242-4.641s3.652-1.623,6.477-1.635h2.338v-1.09
		c0-0.879-0.225-1.582-0.676-2.109s-1.164-0.791-2.137-0.791c-0.855,0-1.525,0.205-2.012,0.615s-0.73,0.973-0.73,1.688h-5.08
		c0-1.102,0.34-2.121,1.02-3.059s1.641-1.673,2.883-2.206s2.637-0.8,4.184-0.8c2.344,0,4.205,0.589,5.582,1.767
		s2.064,2.833,2.064,4.966v8.244c0.012,1.805,0.264,3.17,0.756,4.096v0.299H594.111z M588.979,132.485
		c0,0.624-0.229,1.15-0.686,1.58c-0.457,0.43-1.043,0.644-1.758,0.644c-0.727,0-1.313-0.218-1.758-0.653
		c-0.445-0.436-0.668-0.959-0.668-1.571s0.223-1.138,0.668-1.579c0.445-0.441,1.031-0.662,1.758-0.662s1.316,0.221,1.768,0.662
		C588.754,131.347,588.979,131.874,588.979,132.485z M589.91,152.955c0.75,0,1.441-0.167,2.074-0.501s1.102-0.782,1.406-1.345v-3.27
		h-1.898c-2.543,0-3.896,0.879-4.061,2.637l-0.018,0.299c0,0.633,0.223,1.154,0.668,1.564S589.137,152.955,589.91,152.955z
		 M592.67,132.485c0-0.635,0.238-1.167,0.713-1.597c0.475-0.429,1.051-0.644,1.73-0.644c0.691,0,1.27,0.218,1.732,0.653
		c0.463,0.435,0.693,0.964,0.693,1.588c0,0.612-0.223,1.139-0.668,1.58s-1.031,0.662-1.758,0.662s-1.314-0.221-1.766-0.662
		S592.67,133.097,592.67,132.485z"/>
	<path fill="#989798" d="M607.752,156.488h-5.098v-27h5.098V156.488z"/>
	<path fill="#989798" d="M622.957,156.488c-0.234-0.457-0.404-1.025-0.51-1.705c-1.23,1.371-2.83,2.057-4.799,2.057
		c-1.863,0-3.406-0.539-4.631-1.617s-1.838-2.438-1.838-4.078c0-2.016,0.748-3.563,2.242-4.641s3.652-1.623,6.477-1.635h2.338v-1.09
		c0-0.879-0.225-1.582-0.676-2.109s-1.164-0.791-2.137-0.791c-0.855,0-1.525,0.205-2.012,0.615s-0.73,0.973-0.73,1.688h-5.08
		c0-1.102,0.34-2.121,1.02-3.059s1.641-1.673,2.883-2.206s2.637-0.8,4.184-0.8c2.344,0,4.205,0.589,5.582,1.767
		s2.064,2.833,2.064,4.966v8.244c0.012,1.805,0.264,3.17,0.756,4.096v0.299H622.957z M618.756,152.955
		c0.75,0,1.441-0.167,2.074-0.501s1.102-0.782,1.406-1.345v-3.27h-1.898c-2.543,0-3.896,0.879-4.061,2.637l-0.018,0.299
		c0,0.633,0.223,1.154,0.668,1.564S617.982,152.955,618.756,152.955z"/>
	<path fill="#989798" d="M635.912,137.469l0.158,2.197c1.359-1.699,3.182-2.549,5.467-2.549c2.016,0,3.517,0.592,4.501,1.775
		s1.488,2.953,1.512,5.309v12.287h-5.081v-12.164c0-1.078-0.234-1.86-0.703-2.347s-1.248-0.729-2.338-0.729
		c-1.43,0-2.502,0.609-3.217,1.828v13.412h-5.08v-19.02H635.912z"/>
</g>
<line fill="#E0DFCF" stroke="#E0DFCF" stroke-width="16" stroke-miterlimit="10" x1="360.594" y1="45.085" x2="719.928" y2="45.085"/>
<line fill="#E0DFCF" stroke="#E0DFCF" stroke-width="16" stroke-miterlimit="10" x1="360.594" y1="238.215" x2="719.928" y2="238.215"/>
<g>
	<path fill="#666766" d="M84.748,90.569c0,1.46-0.419,2.712-1.256,3.757c-0.837,1.045-1.845,1.567-3.023,1.567H63.312
		c-1.178,0-2.187-0.522-3.023-1.567c-0.837-1.044-1.255-2.297-1.255-3.757c0-1.138,0.057-2.213,0.171-3.224
		c0.113-1.011,0.324-2.029,0.633-3.054c0.308-1.024,0.7-1.901,1.175-2.631c0.475-0.73,1.104-1.326,1.888-1.788
		s1.684-0.693,2.702-0.693c1.754,1.715,3.85,2.572,6.288,2.572s4.534-0.857,6.288-2.572c1.018,0,1.918,0.231,2.702,0.693
		c0.783,0.462,1.413,1.058,1.888,1.788s0.867,1.607,1.175,2.631c0.308,1.025,0.519,2.042,0.633,3.054S84.748,89.431,84.748,90.569z
		 M77.345,67.296c1.506,1.507,2.26,3.325,2.26,5.455s-0.753,3.947-2.26,5.454c-1.507,1.507-3.325,2.26-5.455,2.26
		c-2.129,0-3.947-0.753-5.454-2.26s-2.26-3.325-2.26-5.454s0.753-3.948,2.26-5.455c1.507-1.506,3.325-2.26,5.454-2.26
		C74.02,65.036,75.838,65.79,77.345,67.296z"/>
</g>
<g>
</g>
<g>
</g>
<g>
</g>
<g>
</g>
<g>
</g>
<g>
</g>
</svg>
