<?xml version="1.0" encoding="utf-8"?>
<!-- Generator: Adobe Illustrator 16.0.0, SVG Export Plug-In . SVG Version: 6.00 Build 0)  -->
<!DOCTYPE svg PUBLIC "-//W3C//DTD SVG 1.1//EN" "http://www.w3.org/Graphics/SVG/1.1/DTD/svg11.dtd">
<svg version="1.1" id="Layer_1" xmlns="http://www.w3.org/2000/svg" xmlns:xlink="http://www.w3.org/1999/xlink" x="0px" y="0px"
	 width="75px" height="75px" viewBox="0 0 75 75" enable-background="new 0 0 75 75" xml:space="preserve">
<circle fill="#CD5C1F" stroke="#231F20" stroke-width="3" stroke-miterlimit="10" cx="37.5" cy="37.5" r="36"/>
<g>
	<path fill="#FFFFFF" d="M27.369,49.251c-0.144-2.952,1.008-5.111,3.024-7.199c4.247-4.427,10.906-6.155,10.906-10.367
		c0-1.62-1.547-2.556-3.059-2.556c-2.879,0-3.708,2.412-3.671,4.859h-6.731c0.108-7.451,4.175-10.475,10.762-10.475
		c5.256,0,10.188,2.304,10.188,8.207c0,4.463-3.42,6.299-6.731,8.351c-1.836,1.152-3.78,2.123-5.112,3.06h11.771v6.119H27.369z"/>
</g>
<g>
</g>
<g>
</g>
<g>
</g>
<g>
</g>
<g>
</g>
<g>
</g>
</svg>
