<?xml version="1.0" encoding="utf-8"?>
<!-- Generator: Adobe Illustrator 16.0.0, SVG Export Plug-In . SVG Version: 6.00 Build 0)  -->
<!DOCTYPE svg PUBLIC "-//W3C//DTD SVG 1.1//EN" "http://www.w3.org/Graphics/SVG/1.1/DTD/svg11.dtd">
<svg version="1.1" id="Layer_1" xmlns="http://www.w3.org/2000/svg" xmlns:xlink="http://www.w3.org/1999/xlink" x="0px" y="0px"
	 width="75px" height="75px" viewBox="0 0 75 75" enable-background="new 0 0 75 75" xml:space="preserve">
<circle fill="#D2D7D3" stroke="#231F20" stroke-width="3" stroke-miterlimit="10" cx="37.5" cy="37.5" r="36"/>
<g>
	<path fill="#222222" d="M33.668,40.432c-0.036,1.152,0.288,2.088,0.9,2.736c0.612,0.647,1.548,1.008,2.7,1.008
		c2.196,0,3.347-1.477,3.347-2.951c0-2.916-2.879-2.808-4.679-2.808v-4.428c1.764,0.144,4.463-0.216,4.463-2.591
		c0-1.656-1.476-2.268-2.951-2.268c-1.764,0-3.06,0.9-3.276,2.7h-6.767c0.252-5.831,4.967-8.315,10.259-8.315
		c6.012,0,9.755,2.771,9.755,7.091c0,2.304-0.899,3.995-2.952,5.003c2.305,0.9,3.636,2.808,3.636,5.292
		c0,5.902-4.427,8.891-11.23,8.891c-5.903,0-10.367-3.06-10.259-9.359H33.668z"/>
</g>
<g>
</g>
<g>
</g>
<g>
</g>
<g>
</g>
<g>
</g>
<g>
</g>
</svg>
