<?xml version="1.0" encoding="utf-8"?>
<!-- Generator: Adobe Illustrator 16.0.0, SVG Export Plug-In . SVG Version: 6.00 Build 0)  -->
<!DOCTYPE svg PUBLIC "-//W3C//DTD SVG 1.1//EN" "http://www.w3.org/Graphics/SVG/1.1/DTD/svg11.dtd">
<svg version="1.1" id="Layer_1" xmlns="http://www.w3.org/2000/svg" xmlns:xlink="http://www.w3.org/1999/xlink" x="0px" y="0px"
	 width="75px" height="75px" viewBox="0 0 75 75" enable-background="new 0 0 75 75" xml:space="preserve">
<circle fill="#D2D7D3" stroke="#231F20" stroke-width="3" stroke-miterlimit="10" cx="37.5" cy="37.5" r="36"/>
<g>
	<path fill="#222222" d="M29.817,23.874h16.27v6.119H35.072l-0.828,3.816c1.583-1.152,3.347-1.368,5.255-1.368
		c4.859,0,8.639,2.952,8.639,8.028c0,7.019-5.579,9.322-11.375,9.322c-5.543,0-9.143-2.484-10.583-7.163l7.523-0.756
		c0,0.071,0.072,0.18,0.072,0.252c0.432,1.331,1.872,2.052,3.24,2.052c2.196,0,3.635-1.477,3.635-3.348
		c0-2.088-1.008-3.672-3.275-3.672c-1.116,0-2.448,0.288-3.023,1.404l-7.055-0.252L29.817,23.874z"/>
</g>
<g>
</g>
<g>
</g>
<g>
</g>
<g>
</g>
<g>
</g>
<g>
</g>
</svg>
