<?xml version="1.0" encoding="utf-8"?>
<!-- Generator: Adobe Illustrator 16.0.0, SVG Export Plug-In . SVG Version: 6.00 Build 0)  -->
<!DOCTYPE svg PUBLIC "-//W3C//DTD SVG 1.1//EN" "http://www.w3.org/Graphics/SVG/1.1/DTD/svg11.dtd">
<svg version="1.1" id="Layer_1" xmlns="http://www.w3.org/2000/svg" xmlns:xlink="http://www.w3.org/1999/xlink" x="0px" y="0px"
	 width="51.199px" height="49.495px" viewBox="0 0 51.199 49.495" enable-background="new 0 0 51.199 49.495" xml:space="preserve">
<path fill="#8D8D8D" stroke="#FFFFFF" stroke-width="2" stroke-miterlimit="10" d="M18.93,36.155h21.643
	c0-3.855-1.328-10.438-5.541-13.445c1.653-1.315,2.715-3.34,2.715-5.617c0-3.965-3.213-7.18-7.178-7.18
	c-3.967,0-7.181,3.215-7.181,7.18c0,2.277,1.063,4.302,2.715,5.617C21.892,25.717,18.93,32.299,18.93,36.155z"/>
<path fill="#8C8C8C" stroke="#FFFFFF" stroke-width="2" stroke-miterlimit="10" d="M4.909,36.109h21.643
	c0-3.854-2.961-10.438-7.174-13.446c1.654-1.314,2.716-3.339,2.716-5.615c0-3.966-3.214-7.18-7.18-7.18
	c-3.965,0-7.18,3.214-7.18,7.18c0,2.276,1.063,4.301,2.716,5.615C6.238,25.671,4.909,32.254,4.909,36.109z"/>
<path fill="#989898" stroke="#FFFFFF" stroke-width="2" stroke-miterlimit="10" d="M12.736,36.109H33.63
	c0-4.002-1.44-10.834-5.812-13.957c1.715-1.364,2.816-3.467,2.816-5.829c0-4.116-3.336-7.453-7.452-7.453
	c-4.116,0-7.453,3.337-7.453,7.453c0,2.362,1.103,4.465,2.818,5.829C14.177,25.275,12.736,32.107,12.736,36.109z"/>
<g>
	<path fill-rule="evenodd" clip-rule="evenodd" fill="#515151" d="M36.768,39.477c-1.769,1.443-3.539,2.546-5.467,3.395
		c-9.58,4.221-21.007,1.078-27.085-7.445c-3.19-4.473-4.556-9.462-4.145-14.925C0.756,11.405,7.287,3.428,16.075,0.894
		c11.771-3.395,24.061,3.163,27.652,14.875c1.994,6.503,1.123,12.72-2.464,18.521c-0.231,0.374-0.214,0.563,0.101,0.874
		c2.963,2.937,5.91,5.89,8.852,8.848c0.875,0.88,1.199,1.954,0.839,3.148c-0.353,1.175-1.144,1.982-2.365,2.247
		c-1.178,0.255-2.226-0.046-3.095-0.915c-2.799-2.803-5.602-5.601-8.397-8.407C37.026,39.913,36.912,39.683,36.768,39.477z
		 M39.963,22.392c-0.042-9.687-7.984-17.568-17.669-17.528c-9.575,0.039-17.39,7.901-17.386,17.493
		c0.003,9.7,7.92,17.56,17.643,17.513C32.137,39.825,40.004,31.927,39.963,22.392z"/>
</g>
<g>
</g>
<g>
</g>
<g>
</g>
<g>
</g>
<g>
</g>
<g>
</g>
</svg>
